<?xml version="1.0" encoding="utf-8"?>
<!-- Generator: Adobe Illustrator 28.0.0, SVG Export Plug-In . SVG Version: 6.00 Build 0)  -->
<svg version="1.1" id="Livello_1" xmlns="http://www.w3.org/2000/svg" xmlns:xlink="http://www.w3.org/1999/xlink" x="0px" y="0px"
	 viewBox="0 0 192 192" style="enable-background:new 0 0 192 192;" xml:space="preserve">
<path d="M106.7,47.4c0.9,0,1.6-0.7,1.6-1.6c0-0.9-0.7-1.6-1.6-1.6l0,0c-0.9,0-1.6,0.7-1.6,1.6C105.2,46.6,105.9,47.4,106.7,47.4z
	 M38.1,59l-4.8,9.6l-9.9-5.2l-2,4.1c0.2,0,0.4-0.1,0.7-0.1c0.4,0,0.8,0.1,1.1,0.2l11,5.8l6.5-13L38.1,59z M154.1,62.2l2.3-1.2
	l3.8,7.2l2.6-1.4l-3.8-7.2l2.2-1.2l5.4,10.4l2.6-1.4L161.6,53c-0.3,0.6-0.8,1.2-1.2,1.4l-10.7,5.8l7.4,14.3l2.6-1.4L154.1,62.2z
	 M100.3,47.4c0.9,0,1.6-0.7,1.6-1.6c0-0.9-0.7-1.6-1.6-1.6s-1.6,0.7-1.6,1.6C98.7,46.6,99.5,47.4,100.3,47.4z M137.6,58.6
	L137.6,58.6c8.9,10,14.2,23.1,14.2,37.4c0,22.9-13.6,42.6-33.2,51.4c-0.1,0-0.1,0.1-0.2,0.1l0,0l0.2-0.1c3.2-1.5,5.4-4.8,5.4-8.6
	c0-5.2-4.2-9.5-9.5-9.5l-10,0c-0.7,0-1.2-0.5-1.2-1.2c0-0.7,0.5-1.2,1.2-1.2c0,0,0,0,0,0h16.9c7.9,0,14.4-6.4,14.4-14.4
	c0-7.9-6.4-14.4-14.4-14.4l-2.1,0h-14.1c-0.7,0-1.2-0.5-1.3-1.2c0-0.7,0.5-1.2,1.2-1.3c0,0,0,0,0.1,0l12.4,0
	c13.1,0,23.8-10.6,23.8-23.8c0-4.6-1.4-9.2-3.9-13.1l-0.1-0.1c0,0,0-0.1,0-0.1c0-0.1,0.1-0.2,0.2-0.2
	C137.6,58.5,137.6,58.5,137.6,58.6L137.6,58.6z M113.6,149.4c-5.8,2-12,3-18.1,3c-8.5,0-16.5-1.9-23.7-5.2v-44.4h16
	c-0.6-1.8-0.9-3.7-0.9-5.6c0-3,0.7-5.8,2-8.2H71.8v-44c7.2-3.3,15.2-5.2,23.7-5.2c9.8,0,19.1,2.5,27.2,7h0c1.2,0.7,1.9,2,1.9,3.5
	c0,2.3-1.8,4.1-4.1,4.1c0,0,0,0,0,0l-0.1,0H119l-5.6,0c-2,0-3.1,0.6-3.7,1.2c-2,1.7-1.3,3.7-5.3,3.7H93.3c1.5,3.5,4.9,5.9,5.8,6.5
	h13.6c0.5,0,1,0.3,1.2,0.8c0.1,0.2,0.1,0.5,0.1,0.7c-0.1,0.6-0.7,1.1-1.3,1.1H98.8c-1.1,0.6-4.3,2.6-5.8,7.1h25c1.6,0,3,1.3,3,3
	c0,1.6-1.3,3-3,3c0,0,0,0,0,0l-12.7,0c-8.7,0-15.8,7.1-15.8,15.8c0,8.7,7.1,15.8,15.8,15.8h15.8c0.7,0,1.2,0.6,1.2,1.2
	c0,0.7-0.5,1.2-1.2,1.2c0,0,0,0,0,0H105c-6.4,0-11.6,5.2-11.6,11.6c0,6.4,5.2,11.6,11.6,11.6l6.1,0c3.1,0,5.6,2.6,5.6,5.7
	C116.8,146.6,115.2,148.4,113.6,149.4L113.6,149.4z M57.9,88.8H39.5C41.3,75,48,62.8,57.9,54L57.9,88.8z M57.9,138
	c-10-8.9-16.7-21.3-18.4-35.3h18.4V138z M95.5,36.6C62.6,36.6,36,63.2,36,96c0,32.8,26.6,59.4,59.4,59.4c32.8,0,59.4-26.6,59.4-59.4
	C154.9,63.2,128.3,36.6,95.5,36.6L95.5,36.6z M93.2,51.4h14c0.6,0,1.1-0.5,1.1-1.1c0-0.6-0.5-1.1-1.1-1.1h-14
	c-0.6,0-1.1,0.5-1.1,1.1C92.2,50.9,92.7,51.4,93.2,51.4z M93.8,47.4c0.9,0,1.6-0.7,1.6-1.6c0-0.9-0.7-1.6-1.6-1.6c0,0,0,0,0,0
	c-0.9,0-1.6,0.7-1.6,1.6C92.2,46.6,92.9,47.4,93.8,47.4z M96,66.9l0.2-0.2v0L96,66.5c-3.1-2.3-4.5-5-5.3-7.2
	c-0.6-1.5-1.2-2.7-2.2-3.6c-1-0.9-1.7-1.4-3.1-1.4c-0.6,0-1.1,0.1-1.7,0.2l-0.3,0.1l0.2,0.4c0.3,0.6,0.9,1.7,1.9,2
	c0.1,0,0.2,0,0.3,0c0.1,0,0.2,0,0.2,0c0.1,0,0.1,0,0.2,0c0.1,0,0.1,0,0.1,0c1.1,0.6,1.7,5.3,1.7,7.6c0,0.4-0.2,0.6-0.5,0.6
	c-0.4,0-0.8-0.2-1.1-0.5c-0.6-0.7-1.6-1.1-2.6-1.1c-1.6,0-3.4,1.1-3.4,3v0.4c0.1,1.8,1.8,3,3.4,3c1,0,1.9-0.4,2.6-1.1
	c0.3-0.3,0.8-0.5,1.1-0.5c0.4,0,0.5,0.2,0.5,0.6c0,2.3-0.6,7-1.7,7.6c0,0,0,0-0.1,0c-0.1,0-0.1,0-0.2,0c-0.1,0-0.2,0-0.2,0
	c-0.1,0-0.2,0-0.3,0c-1,0.3-1.6,1.4-1.9,2l-0.2,0.4l0.3,0.1c0.6,0.1,1.1,0.2,1.7,0.2c1.4,0,2.1-0.5,3.1-1.4c0.9-0.9,1.6-2.1,2.2-3.6
	C91.5,72,92.9,69.2,96,66.9L96,66.9z M26.4,82.6l-0.9,5.9l-5.2-3.9L26.4,82.6z M17,87.3c0.2-0.1,0.5-0.1,0.7-0.1
	c0.3,0,0.6,0.1,0.9,0.2l0,0L29.9,96l0.6-3.8l-2.3-1.7l1.4-9l2.7-0.9l0.6-3.8l-15,5L17,87.3z M95.4,181c-46.9,0-85-38-85-85
	s38-85,85-85c46.9,0,85,38,85,85S142.3,181,95.4,181z M95.4,7.5C46.5,7.5,6.9,47.1,6.9,96s39.6,88.5,88.5,88.5
	c48.9,0,88.5-39.6,88.5-88.5S144.3,7.5,95.4,7.5z M115.1,27c0.6-1.7,2-2.6,4.1-2.6c0.9,0,1.8,0.2,2.7,0.5c3.2,1.2,4.8,3.5,3.9,6
	c-0.6,1.7-2,2.6-4.1,2.6c-0.9,0-1.8-0.2-2.7-0.5C115.8,31.8,114.2,29.5,115.1,27L115.1,27z M118,36c1.4,0.5,2.9,0.8,4.3,0.8h0
	c3.5,0,6.2-1.7,7.2-4.6c0.7-2,0.4-4.2-0.9-6.1c-1.2-1.8-3.2-3.3-5.7-4.2c-1.4-0.5-2.8-0.8-4.2-0.8c-3.5,0-6.2,1.7-7.2,4.6
	C110,29.8,112.8,34.1,118,36L118,36z M140.8,37.1l-1.4,10.7l0.2,0.2l10.3-2.4l-5.6,7.6l2.8,2.6l8.6-11.3l-3.2-3l-9,2l1.1-9.3
	l-3.3-3.1h0l-0.4-0.4c0,0.7-0.3,1.4-0.7,1.7l-8.9,8.6l2.8,2.6L140.8,37.1z M167.5,92.3c-0.2,0-0.5,0.1-0.7,0.1
	c-2.2,0-3.9-1.9-4.4-5.1c-0.6-3.4,0.7-6,3.2-6.4c0.2,0,0.4-0.1,0.7-0.1c2.2,0,3.9,2,4.4,5C171.3,89.4,170,91.9,167.5,92.3
	L167.5,92.3z M173.8,85.4c-0.8-5-4-8.4-7.7-8.4c-0.4,0-0.7,0-1.1,0.1c-4.2,0.7-6.6,5.3-5.6,10.8c0.8,5.1,3.9,8.5,7.7,8.5
	c0.4,0,0.7,0,1.1-0.1C172.3,95.5,174.7,90.9,173.8,85.4z M98.6,20.2L98.6,20.2c1.2,0,2,0.9,2,2.1c0,1.3-0.8,2.1-2,2.1l-7.3,0.1
	l0-4.2L98.6,20.2z M87.6,31.5l3.8,0l0-3.9l6.3-0.1l2.8,3.9l4.2,0l-3.2-4.2l0.4-0.2c1.6-0.8,2.5-2.4,2.5-4.4c0-3.2-2.1-5.3-5.4-5.3
	l-11.5,0.1v0l-0.7,0c0.4,0.5,0.6,1.1,0.7,1.6L87.6,31.5z M62.6,33.9l-5.2,3l-0.2-6.5L62.6,33.9z M54,30.7L54,30.7L54.3,45l3.3-1.9
	l-0.1-2.9l7.9-4.6l2.4,1.5l3.3-1.9l-13.3-8.6l-4.7,2.7C53.6,29.7,53.9,30.2,54,30.7L54,30.7z M34.5,48.6l8.9,8.6l2.6-2.8l-3.3-3.2
	l5.5-6l-2.1-2l-5.5,6l-2.5-2.4l7.9-8.6l-2.1-2L32.9,48C33.5,48,34.1,48.3,34.5,48.6L34.5,48.6L34.5,48.6z"/>
</svg>
