<?xml version="1.0" encoding="utf-8"?>
<!-- Generator: Adobe Illustrator 26.0.2, SVG Export Plug-In . SVG Version: 6.00 Build 0)  -->
<svg version="1.1" id="Layer_1" xmlns="http://www.w3.org/2000/svg" xmlns:xlink="http://www.w3.org/1999/xlink" x="0px" y="0px"
	 viewBox="0 0 192 192" style="enable-background:new 0 0 192 192;" xml:space="preserve">
<g>
	<path d="M138.9,159.8c-5.9,0-11.6,0-17.4,0c0-0.4-0.1-0.9-0.1-1.3c-0.3-13.5-0.4-26.9-0.8-40.4c-0.1-4.9-0.6-9.7-0.9-14.6
		c-0.1-1-0.4-1.3-1.4-1.3c-5.5,0.1-11.1,0-16.7,0c-0.3,0-0.7,0-1.3,0c0,19.2,0,38.3,0,57.5c-5.9,0-11.5,0-17.2,0
		c0-42.4,0-84.8,0-127.3c0.5,0,0.9-0.1,1.4-0.1c11.8,0,23.5,0,35.3,0c1,0,1.5,0.3,1.9,1.2c5.1,10.3,8.3,21.3,10.7,32.5
		c3.1,14.6,4.7,29.4,5.7,44.3c1,16,1.1,32,0.9,48.1C138.9,158.8,138.9,159.2,138.9,159.8z M100.2,46.8c0,13.6,0,27,0,40.4
		c6.2,0,12.2,0,18.4,0c0-0.6,0-1.2-0.1-1.7c-1.3-7.5-2.3-15-3.9-22.4c-1.1-5.2-3.1-10.2-4.7-15.3c-0.1-0.4-0.7-1-1-1
		C106,46.8,103.1,46.8,100.2,46.8z"/>
	<path d="M30.6,87.3c4.6,0,9.1,0,13.7,0c0,4.9,0,9.8,0,14.8c-4.6,0-9.1,0-13.9,0c0,19.3,0,38.5,0,57.7c-6.4,0-12.6,0-18.9,0
		c0-42.6,0-85.1,0-127.6c12.3,0,24.4,0,36.7,0c0,4.9,0,9.8,0,14.8c-5.9,0-11.7,0-17.7,0C30.6,60.4,30.6,73.8,30.6,87.3z"/>
	<path d="M134.3,32.3c15.4,0,30.8,0,46.2,0c0,4.8,0,9.7,0,14.7c-4.5,0-9,0-13.7,0c0,37.6,0,75.1,0,112.7c-6.3,0-12.5,0-18.9,0
		c0-37.5,0-75,0-112.6c-4.6,0-9.1,0-13.6,0C134.3,42.1,134.3,37.3,134.3,32.3z"/>
	<path d="M55.1,32.4c6.4,0,12.6,0,18.8,0c0,42.4,0,84.8,0,127.4c-6.3,0-12.6,0-18.8,0C55.1,117.4,55.1,75,55.1,32.4z"/>
</g>
</svg>
