<?xml version="1.0" encoding="utf-8"?>
<!-- Generator: Adobe Illustrator 26.0.2, SVG Export Plug-In . SVG Version: 6.00 Build 0)  -->
<svg version="1.1" id="Layer_1" xmlns="http://www.w3.org/2000/svg" xmlns:xlink="http://www.w3.org/1999/xlink" x="0px" y="0px"
	 viewBox="0 0 192 192" style="enable-background:new 0 0 192 192;" xml:space="preserve">
<style type="text/css">
	.st0{fill:#E60020;}
</style>
<path class="st0" d="M27.6,131.4h16.1v2.7l-2.7,0.3c-1.2,0.1-1.3,1.1-1.3,1.8v10.5c0,0.6,0.1,1.7,1.3,1.8l2.7,0.3v2.7H27.6v-2.7
	l2.7-0.3c1.2-0.1,1.3-1.2,1.3-1.8v-3.2H19.2v3.2c0,0.6,0.1,1.7,1.3,1.8l2.7,0.3v2.7H7.1v-2.7l2.7-0.3c1.2-0.1,1.3-1.2,1.3-1.8v-10.5
	c0-0.6-0.1-1.7-1.3-1.8l-2.7-0.3v-2.7h16.1v2.7l-2.7,0.3c-1.2,0.1-1.3,1.1-1.3,1.8v3.2h12.4v-3.2c0-0.6-0.1-1.7-1.3-1.8l-2.7-0.3
	V131.4z M135.5,131.6c7.2,0,13,2.7,13,9.9c0,7.2-5.9,10.1-13.2,10.1h-20.2v-2.7l2.7-0.3c1.2-0.1,1.3-1.2,1.3-1.8v-10.7
	c0-1.2-0.6-1.5-1.4-1.6l-2.4-0.2v-2.7h20H135.5z M133.8,147.7c4,0,5.3-1.9,5.3-6.2s-1.4-6.2-5.3-6.2H127v12.4H133.8 M182.4,148.6
	l2.6,0.3v2.7h-17.5v-2.7l2.3-0.2c0.9-0.1,1.9-0.6,1.1-1.8l-0.9-1.4h-12.4l-1,1.7c-0.5,0.8,0,1.4,1,1.5l2.2,0.2v2.7h-12.9v-2.7
	l2.7-0.3c0.8-0.1,1.1-0.6,1.4-1.1l6.9-11.2c0.6-0.9-0.1-1.6-0.6-1.7l-3.7-0.4v-2.7h15.3c1,0,1.5,0.3,2.1,1.3l9.3,14.2
	C180.7,147.6,181.1,148.4,182.4,148.6 M167.6,141.8l-4.1-6.2l-3.8,6.2H167.6z M100.9,134.2l2.7,0.3c1.2,0.1,1.3,1.1,1.3,1.8v10.1
	l-10.7-14.1c-0.5-0.6-0.9-0.9-2-0.9H78.4v2.7l2.7,0.3c1.2,0.1,1.3,1.1,1.3,1.8v10.5c0,0.6-0.1,1.7-1.3,1.8l-2.7,0.3v2.7h12.9v-2.7
	l-2.7-0.3c-1.2-0.1-1.3-1.2-1.3-1.8v-10.1L98,150.7c0.5,0.6,0.9,0.9,2,0.9h0.1h9.7v-15.3c0-0.6,0.1-1.7,1.3-1.8l2.7-0.3v-2.7h-12.9
	C100.9,131.5,100.9,134.2,100.9,134.2z M61,130.7c13.1,0,16.5,5.7,16.5,10.8c0,5-3.4,10.8-16.5,10.8s-16.5-5.7-16.5-10.8
	C44.5,136.5,47.9,130.7,61,130.7 M61,148.4c5.1,0,7.2-2.1,7.2-6.9c0-4.8-2.1-6.9-7.2-6.9s-7.2,2.1-7.2,6.9
	C53.8,146.3,55.9,148.4,61,148.4 M118.4,46.4c-2.2,9.9-3.1,14.5-4.9,21.6c-1.7,6.9-3.1,13.3-5.4,16.4c-2.4,3.1-5.5,3.8-7.6,4.1
	c-1.1,0.1-1.9,0.2-4.3,0.2s-3.2-0.1-4.3-0.2c-2.1-0.2-5.3-0.9-7.6-4.1c-2.3-3.1-3.7-9.5-5.4-16.4c-1.8-7.2-2.7-11.7-4.9-21.6
	c0,0-2.2,0.1-3.2,0.2c-1.3,0.1-2.4,0.2-3.5,0.4c0,0,1.3,20.4,1.9,29c0.6,9.1,1.7,24.4,2.7,35.9c0,0,1.9,0.3,4.9,0.5
	c3.2,0.2,4.7,0.2,4.7,0.2c1.3-5.1,3-12.2,4.9-15.2c1.5-2.5,3.9-2.7,5.2-2.9c2.1-0.3,3.9-0.3,4.7-0.3l0,0l0,0c0.8,0,2.6,0,4.7,0.3
	c1.3,0.2,3.7,0.4,5.2,2.9c1.9,3,3.5,10.1,4.9,15.2c0,0,1.4,0,4.7-0.2c3.1-0.2,5-0.5,5-0.5c1-11.6,2.1-26.9,2.7-35.9
	c0.6-8.6,1.9-29,1.9-29c-1.1-0.1-2.2-0.3-3.5-0.4C120.6,46.5,118.4,46.4,118.4,46.4 M144,58.4c0.4,3.5,0.5,8.1,0.4,13.1
	c-0.1,8.2-0.8,13.7-1.2,17.6c-0.3,2.6-1.4,10.5-2.8,14.6c-1.9,5.6-3.7,7.3-5.7,8.9c-3.8,3.1-9.9,4-11.3,4.2
	c-7,1.3-21.1,1.5-27.3,1.5c-6.2,0-20.4-0.2-27.3-1.5c-1.3-0.2-7.5-1.2-11.2-4.2c-2.1-1.7-3.8-3.3-5.7-8.9c-1.4-4.1-2.5-12-2.8-14.6
	c-0.4-3.8-1.1-9.4-1.2-17.6c-0.1-5,0-9.6,0.4-13.1c1.3-12.9,9.9-15.7,17.5-16.9c3.8-0.6,10.6-1.2,15-1.4c3.8-0.2,12.8-0.4,15.4-0.4
	c2.7,0,11.6,0.1,15.4,0.4c4.4,0.2,11.1,0.7,15,1.4C134.1,42.7,142.7,45.5,144,58.4 M139.3,80.1c0.5-6.2,0.4-16.3-0.3-21.8
	c-1-8.1-5-12.2-13.7-13.7c-4-0.7-9.4-1.2-14.5-1.5c-4.1-0.3-10.9-0.4-14.6-0.4c-3.8,0-10.5,0.1-14.7,0.4C76.4,43.4,71,43.9,67,44.6
	c-8.6,1.5-12.6,5.6-13.7,13.7c-0.7,5.4-0.8,15.5-0.3,21.8c0.8,10.3,1.7,16.5,3,21c1.2,3.9,2.6,6.5,4.7,8.4c3.5,3.2,8.3,3.8,11.1,4.3
	c6.1,0.9,16.3,1.2,24.4,1.2s18.3-0.3,24.4-1.2c2.8-0.4,7.6-1.1,11.1-4.3c2.1-1.9,3.5-4.5,4.7-8.4C137.6,96.7,138.5,90.5,139.3,80.1"
	/>
</svg>
