<svg xmlns="http://www.w3.org/2000/svg" viewBox="0 0 192 192"><path d="M38.3 60.8v37.9c0 4.8-3.1 7.7-8.3 7.7-5.4 0-7.8-4.1-7.8-7.8v-6.9H8v7.1c0 13 7.6 19.8 22.1 19.8 8.7 0 15-2.6 18.8-7.6 2.6-3.6 4-8 3.9-12.5V60.8H38.3zm36.5 15.9c11.2 0 21 4.3 21 24.1H69.3c0 6.3 2.6 8.9 7.2 8.9 2.6.1 5-1.4 6.1-3.7h13.1c0 5.7-7.8 13.4-19.7 13.2-13.5 0-20.1-10-20.1-20.3s5.9-22.2 18.9-22.2zm8 16.1c0-3.8-2.1-7.5-7.1-7.5-4.8 0-6.4 3.4-6.4 7.5h13.5zm34.7-16.1c11.2 0 21 4.3 21 24.1H112c0 6.3 2.6 8.9 7.2 8.9 2.6.1 5-1.4 6.1-3.7h13.1c0 5.7-7.8 13.4-19.7 13.2-13.5 0-20.1-10-20.1-20.3s5.8-22.2 18.9-22.2zm8 16.1c0-3.8-2.1-7.5-7.1-7.5-4.8 0-6.4 3.4-6.4 7.5h13.5zm16.4 38.4v-53h13.2v6c.5-1.1 1.1-2.1 1.8-3 .9-1.1 3.4-4.1 10-4.1s16.9 4.6 16.9 20.9c0 12.6-6.1 21.8-16.7 21.8-5.8 0-8.4-2-10-3.2-.7-.5-1.3-1.1-1.8-1.8v16.4h-13.4zM155 98.5c-.2 7.8 1.5 12 8 12s7.4-7.1 7.4-12.4c0-5.4-1.2-10.6-8-10.6-4.2-.1-7.3 3.1-7.4 11zm26.6 31.5c-.8.8-1.7 1.2-2.8 1.2-1.1 0-2-.4-2.8-1.2-.8-.8-1.1-1.7-1.1-2.8 0-1.1.4-2 1.1-2.8.8-.8 1.7-1.1 2.8-1.1 1.1 0 2 .4 2.8 1.1.8.8 1.1 1.7 1.1 2.8 0 1.1-.3 2-1.1 2.8zm-5.2-5.1c-.7.7-1 1.5-1 2.4 0 .9.3 1.7 1 2.4s1.4 1 2.4 1c.9 0 1.7-.3 2.4-1s1-1.5 1-2.4c0-.9-.3-1.7-1-2.4s-1.5-1-2.4-1c-.9 0-1.7.3-2.4 1zm2.3.2c.5 0 .9.1 1.2.2.4.2.7.5.7 1.1 0 .4-.1.7-.4.8-.1.1-.4.2-.6.2.3.1.6.2.7.4.2.2.2.4.2.7v.9h-.7v-.4c0-.5-.1-.8-.4-1-.2-.1-.4-.1-.8-.1h-.6v1.7h-.8v-4.3h1.5zm.9.7c-.2-.1-.5-.2-.9-.2h-.7v1.6h.7c.3 0 .6 0 .7-.1.3-.1.4-.3.4-.7 0-.3 0-.5-.2-.6z"/></svg>