<svg xmlns="http://www.w3.org/2000/svg" viewBox="0 0 192 192"><path d="M184.9 103.4c0 .1-.1.1-.1.2-.1 1.4-.7 2.5-1.8 3.4-.4.3-.8.6-1.2.8-4.9 3-9.8 5.9-14.7 8.9-.1.1-.3.1-.4.2-.2 0-.3 0-.4-.2 0-.1-.1-.2-.1-.3v-.3-26.7-.4c0-.3-.2-.4-.5-.3-.1 0-.2.1-.3.2-9.6 6.2-19.2 12.5-28.8 18.7-3.9 2.5-7.8 5-11.6 7.6-.9.6-1.9.9-3 .9H95.4c-.4 0-.8 0-1.1-.1-1.2-.3-2-1-2.2-2.2-.1-.3-.1-.6-.1-1v-33-.4c0-.3-.2-.4-.5-.3-.1 0-.1.1-.2.1-9 5.2-17.8 10.5-26.7 15.8-.1.1-.2.1-.3.2-.3.2-.3.4-.1.7l.3.3L83.3 115l.4.4c.2.3.1.6-.3.6H65.5c-.4 0-.8-.1-1.2-.1-.6-.1-1.2-.4-1.7-.9-3.7-3.8-7.5-7.5-11.3-11.2l-.1-.1c-.3-.3-.5-.3-.9-.1-.9.5-1.8 1.1-2.7 1.6-5.5 3.3-11.1 6.6-16.6 10-1 .6-2.1.9-3.2.9H10.2c-.3 0-.7 0-1-.1-1.2-.3-1.9-1-2.2-2.1 0-.1-.1-.3-.1-.4V89.3c.1-.3.1-.7.2-1 .2-1.4.9-2.5 1.9-3.3.3-.3.7-.5 1.1-.7 4.9-2.9 9.8-5.9 14.7-8.8.1-.1.3-.2.4-.2.2 0 .3 0 .4.2 0 .2.1.4.1.6V106.7c0 .2.2.3.4.2.2 0 .3-.1.5-.2 3.5-2.1 7-4.2 10.6-6.4 13.1-7.9 26.1-15.7 39.2-23.6.5-.3 1-.7 1.6-.9.6-.2 1.2-.3 1.8-.3h27.1c.4 0 .9.1 1.3.2 1.2.3 2 1.4 2 2.7v34c.1.3.2.4.5.2.1-.1.3-.1.4-.2 8.4-5.5 16.9-10.9 25.3-16.4 9.9-6.4 19.9-12.9 29.8-19.3.7-.5 1.5-.9 2.3-1 .3 0 .7-.1 1-.1h12c.4 0 .7 0 1.1.1 1.1.3 1.9 1 2.1 2.1 0 0 0 .1.1.1.1 8.5.1 17 .1 25.5z"/></svg>