<svg xmlns="http://www.w3.org/2000/svg" viewBox="0 0 192 192"><path d="M95.416 9.506C144.144 9.506 184 49.192 184 97.92a88.836 88.836 0 0 1-88.584 88.584c-48.728 0-88.415-39.856-88.415-88.584A88.502 88.502 0 0 1 95.416 9.506z" fill="none" stroke="#2b4a18" stroke-miterlimit="11.474" stroke-width="2.106"/><path d="M95.382 16.752c44.732 0 81.371 36.47 81.371 81.168a81.639 81.639 0 0 1-81.37 81.371c-44.7 0-81.169-36.639-81.169-81.37a81.335 81.335 0 0 1 81.168-81.169z" fill="#e8bb2f"/><path d="M95.382 16.752c44.732 0 81.371 36.47 81.371 81.168a81.639 81.639 0 0 1-81.37 81.371c-44.7 0-81.169-36.639-81.169-81.37a81.335 81.335 0 0 1 81.168-81.169z" fill="none" stroke="#2b4a18" stroke-miterlimit="3.864" stroke-width="2.106"/><path d="M95.348 147.901c-21.536 0-50.996-7.416-67.589-22.552-4.605-4.2-6.942-10.498-6.908-17.575a24.028 24.028 0 0 1 6.536-16.49L69.07 45.534C80.415 32.837 87.018 31.008 95.45 31.008c8.567 0 15.204 2.201 26.514 14.561l41.99 45.816a24.305 24.305 0 0 1 6.196 16.186 22.734 22.734 0 0 1-7.89 17.27c-17.506 15.78-45.24 23.06-66.912 23.06z" fill="#fff"/><path d="M95.348 147.901c-21.536 0-50.996-7.416-67.589-22.552-4.605-4.2-6.942-10.498-6.908-17.575a24.028 24.028 0 0 1 6.536-16.49L69.07 45.534C80.415 32.837 87.018 31.008 95.45 31.008c8.567 0 15.204 2.201 26.514 14.561l41.99 45.816a24.305 24.305 0 0 1 6.196 16.186 22.734 22.734 0 0 1-7.89 17.27c-17.506 15.78-45.24 23.06-66.912 23.06z" fill="none" stroke="#2b4a18" stroke-miterlimit="3.864" stroke-width="2.106"/><path d="M33.55 119.761a15.886 15.886 0 0 1-5.418-12.088c.033-3.658 1.896-6.604 2.98-8.534a15.678 15.678 0 0 1 1.557-2.302c.576-.745.948-1.084 1.084-1.253l40.431-45.308c10.26-11.48 15.103-12.19 21.232-12.19 6.163 0 11.107 1.015 21.435 12.291l41.65 45.444a17.65 17.65 0 0 1 4.403 11.445 16.118 16.118 0 0 1-5.69 12.394c-15.711 14.222-41.447 21.164-61.866 21.164-20.283 0-47.102-7.653-61.798-21.063z" fill="#2b4a18"/><path d="M33.55 119.761a15.886 15.886 0 0 1-5.418-12.088c.033-3.658 1.896-6.604 2.98-8.534a15.678 15.678 0 0 1 1.557-2.302c.576-.745.948-1.084 1.084-1.253l40.431-45.308c10.26-11.48 15.103-12.19 21.232-12.19 6.163 0 11.107 1.015 21.435 12.291l41.65 45.444a17.65 17.65 0 0 1 4.403 11.445 16.118 16.118 0 0 1-5.69 12.394c-15.711 14.222-41.447 21.164-61.866 21.164-20.283 0-47.102-7.653-61.798-21.063z" fill="none" stroke="#2b4a18" stroke-miterlimit="3.864" stroke-width="2.094"/><path d="M142.959 113.599a10.685 10.685 0 0 0 3.284-.915 44.607 44.607 0 0 0 1.863-.846 5.258 5.258 0 0 0 .677-.474 8.61 8.61 0 0 0 1.355-1.22c.914-1.015 1.625-2.302.812-3.555-.575-.914-1.76-.914-3.284-.508s-3.353 1.185-5.249 1.76c-3.657 1.118-7.45 1.39-9.583-2.166-1.693-2.879-.61-8.567 6.197-11.107a23.063 23.063 0 0 1 3.792-1.185c.373-.068.678-.136.982-.203a3.97 3.97 0 0 0 .813-.305c.305-.136.745-.339 1.084-.508a1.126 1.126 0 0 1 .745.101l2.133 1.897a.712.712 0 0 1 .102.846l-.271.407a.806.806 0 0 1-.745.27 8.504 8.504 0 0 0-1.524-.304 11.597 11.597 0 0 0-8.669 2.844c-.982.948-1.558 1.998-1.016 3.014a1.887 1.887 0 0 0 1.693.813 8.612 8.612 0 0 0 2.54-.339 21.383 21.383 0 0 0 3.319-1.185 18.584 18.584 0 0 1 4.436-1.118c2.133-.237 4.876.034 6.23 2.337 2.134 3.623.542 7.077-1.32 9.075-4.301 4.64-11.412 5.79-13.071 5.994a.848.848 0 0 1-.61-.271l-2.404-3.15c-.542-.71.102-1.422.846-.981a7.503 7.503 0 0 0 4.843.982zm-36.707-5.52a.654.654 0 0 1 .61-.779 34.482 34.482 0 0 0 4.842-.914c1.49-.373 2.878-.779 3.826-1.016a.697.697 0 0 1 .847.508l.068.372a.95.95 0 0 1-.237.644 3.6 3.6 0 0 0-.373.305 2.37 2.37 0 0 0-.474.541 2.342 2.342 0 0 0-.203 1.693l2.709 10.26c.914 2.845 3.996 3.489 6.603 2.71 2.641-.813 4.775-3.048 3.86-5.994l-3.352-10.497a1.751 1.751 0 0 0-.203-.237l-.542-.542a2.552 2.552 0 0 0-1.456-.813h-.136a.666.666 0 1 1-.169-1.32 23.834 23.834 0 0 0 4.876-1.897.66.66 0 0 1 .948.373l.068.203a1.223 1.223 0 0 1-.101.61c-.068.067-.136.203-.271.338a2.53 2.53 0 0 0-.407 1.32 6.101 6.101 0 0 0 0 .814l3.691 12.901c1.795 6.332-15.475 13.918-18.793 4.978l-3.353-12.089a2.876 2.876 0 0 0-1.659-1.592 2.513 2.513 0 0 0-.61-.135.862.862 0 0 1-.541-.542l-.068-.203zm-14.967 2.1c-2.37 0-3.725.44-4.572 1.05a4.13 4.13 0 0 0-1.015 1.015 6.866 6.866 0 0 0-.44.61.758.758 0 0 1-.813.237l-.068-.034a.73.73 0 0 1-.373-.847c.17-.508.44-1.287.712-2.065.237-.678.474-1.321.643-1.829l.135-.339a.83.83 0 0 1 .711-.44 63.776 63.776 0 0 0 16.627.17.813.813 0 0 1 .677.406l.102.27c.169.44.406 1.017.643 1.592.237.644.508 1.287.677 1.727a.755.755 0 0 1-.338.847l-.136.068a.79.79 0 0 1-.812-.204 6.455 6.455 0 0 0-3.285-2.031 8.896 8.896 0 0 0-1.625-.305c-.407-.034-.678-.034-.678-.034v16.152a.763.763 0 0 0 .034.237 4.05 4.05 0 0 0 .203.576 1.607 1.607 0 0 0 1.321.914l.948.068a.723.723 0 0 1 .61.677v.542a.723.723 0 0 1-.61.677 61.91 61.91 0 0 1-11.75 0 .693.693 0 0 1-.61-.677v-.508a.697.697 0 0 1 .678-.643 4.108 4.108 0 0 0 .61-.034 2.003 2.003 0 0 0 1.692-1.016 2.981 2.981 0 0 0 .203-.576 1.269 1.269 0 0 0 .034-.27v-15.814c0-.102-.034-.136-.067-.136l-.068-.034zm-27.36 14.933c-6.536-3.15-9.55-9.55-5.385-16.762 3.25-5.587 9.109-6.4 14.967-3.759 7.518 3.454 9.38 10.328 6.265 15.983-3.556 6.536-9.82 7.416-15.848 4.538zm1.083-2.81c3.183 1.523 6.535 1.421 9.312-6.028 1.151-3.082 2.032-7.01-2.032-8.974-4.74-2.37-7.077.745-8.804 4.91-1.829 4.402-1.66 8.567 1.524 10.091zm-30.409-15.645l.136-.17a.876.876 0 0 1 .812-.169 10.171 10.171 0 0 0 1.321.576 2.075 2.075 0 0 0 2.269-.373c.27-.237 2.167-2.743 4.063-5.316s3.86-5.215 4.267-5.79a2.076 2.076 0 0 0 .372-1.558 3.455 3.455 0 0 0-.135-.508c-.034-.102-.068-.136-.068-.17l-1.016-1.185a.763.763 0 0 1 0-.88l.237-.271a.727.727 0 0 1 .949-.102 98.472 98.472 0 0 0 8.668 6.333.664.664 0 0 1 .17.948l-.102.135a.74.74 0 0 1-.847.203 2.461 2.461 0 0 0-3.183.475c-.541.71-7.754 10.53-8.127 11.039a1.944 1.944 0 0 0 .136 2.302 18.58 18.58 0 0 0 3.928 2.574 3.461 3.461 0 0 0 2.032.101 6.962 6.962 0 0 0 1.456-.778c.203-.136.372-.237.541-.339a.78.78 0 0 1 .813.068l.237.203a.687.687 0 0 1 .068.948c-.339.406-.847.982-1.388 1.558-.44.508-.915 1.016-1.253 1.388l-.237.237a.88.88 0 0 1-.813.136 103.67 103.67 0 0 1-15.306-10.667.687.687 0 0 1-.068-.948h.068zm49.405-34.37c1.287-4.572 4.673-6.4 8.094-7.01V63.55h-4.301l-5.452 8.77h1.592l.067-.034zm7.992 14.899l-.068-.068a10.63 10.63 0 0 1-8.465-11.378v-.304H80.28l-2.574 4.03C79.772 92.13 88.982 97.04 98.226 97.04c8.365 0 15.239-3.623 18.794-7.382a4.29 4.29 0 0 1 .44-.373.916.916 0 0 1 .678-.203c.372.034.778.271.61.948a1.289 1.289 0 0 1-.272.576c-3.555 5.96-11.039 10.294-20.25 10.193-9.684-.102-20.114-4.741-24.956-14.392l-.88 1.388a.836.836 0 0 0-.136.373 2.063 2.063 0 0 0-.101.813c.067.541.44 1.083 1.625 1.32a.804.804 0 0 1 .542.644v.135a.68.68 0 0 1-.677.677H63.01a.68.68 0 0 1-.677-.677v-.17a.824.824 0 0 1 .507-.643l.271-.067c.474-.136 1.118-.305 1.829-.542a8.437 8.437 0 0 0 3.793-2.303l3.013-4.808a28.73 28.73 0 0 1-1.185-8.466c0-18.32 14.933-24.753 24.99-24.889a28.912 28.912 0 0 1 11.988 2.37c1.219.644 1.76.272 2.2-.304.204-.305.373-.644.61-.948a1.458 1.458 0 0 1 .508-.508.9.9 0 0 1 .78.034c.033.034.1.067.135.101a6.69 6.69 0 0 1 .914.982 24.797 24.797 0 0 1 2.133 3.116 19.806 19.806 0 0 1 1.592 3.183 6.39 6.39 0 0 1 .203.71.654.654 0 0 1-.61.78c-.135 0-.304.033-.474.033h-.44a3.196 3.196 0 0 1-.305-.101C100.7 49.836 77.503 49.53 77.3 73.675l5.892-9.482a1.02 1.02 0 0 0-.136-1.286 2.736 2.736 0 0 0-.542-.542l-.27-.271-.136-.136c-.542-.541-.27-1.15.474-1.15h23.094c7.484 1.658 7.924 10.666 2.032 12.528-.034 0-.203.068-.339.102-.067.034-.169.067-.237.101-.101.068-.101.136-.101.136s0 .067.101.135a1.472 1.472 0 0 0 .237.136 2.077 2.077 0 0 1 .373.169c10.633 3.59 6.738 17.642-3.623 17.676h-15.07a.664.664 0 1 1-.135-1.32 7.996 7.996 0 0 0 1.22-.373 4.638 4.638 0 0 0 1.219-.643 1.345 1.345 0 0 0 .61-.949l.033-1.32zm4.707.237l-.136 2.2h7.213c3.285 0 4.944-3.52 4.944-7.043s-1.66-7.043-4.944-7.043h-7.213v9.956a15.716 15.716 0 0 0 7.45-2.269c.779-.474 1.456.339.847 1.016-1.626 1.862-4.707 3.081-8.161 3.183zm-4.707-2.71v-9.311h-4.673v.27c.034 5.114 1.998 7.823 4.673 9.042zm.102-12.393v-4.977a6.853 6.853 0 0 0-4.369 4.977zM103 65.683a11.159 11.159 0 0 1 .982 1.32 6.064 6.064 0 0 1 .44.746c.407.711-.135 1.287-.88.948a20.667 20.667 0 0 0-7.01-1.862v5.418h6.976c2.032 0 3.116-2.168 3.116-4.335 0-2.2-1.016-4.334-3.116-4.334h-6.975v1.524a15.333 15.333 0 0 1 4.13.778c.576.271.847.17 1.017-.067.033-.034.067-.102.135-.17a.633.633 0 0 1 1.05-.033l.135.067z" fill="#fff"/></svg>