<svg xmlns="http://www.w3.org/2000/svg" viewBox="0 0 192 192"><path d="M180.3 122.8h-4l.3-.6c.7-1.3 1.3-1.7 2.8-1.7h2.1c-.4.8-.8 1.6-1.2 2.3zm-4.4 9c1.2-2.5 2.5-5 3.7-7.4h-4c-1.1 2.1-2.1 4.3-3.2 6.4-.4.7-.9 1-1.7 1h-9.8c1.3-2.7 2.6-5.3 4-8 .6-1.1.8-1.2 2.1-1.2h1.2c1.1 0 1.7-.3 2.1-1.2.2-.4.4-.7.5-1.1h-4.2l1.8-3.6h-2.6c-1.1 0-1.7.3-2.1 1.2l-1.2 2.4h-2.2c-.4.8-.8 1.5-1.2 2.3h2.2c-.5.9-3.6 7.2-4.1 8.1-.4.7-.9 1-1.7 1h-8.7c1.5-2.8 3.1-5.6 4.6-8.5h-3.2c-.7 0-1.1.2-1.5.8 0-.6-.2-.8-.8-.8h-2.2c-3.6 0-5.7 1.1-7.2 4-.6 1.1-1.3 2.3-1.9 3.4-.4.7-.9 1-1.7 1h-5.6c-2 0-2.8-.3-3-1.4-.2-1.1.3-2.1 3-3.9.5-.3 1-.7 1.5-1 .7-.5 1-.7.9-1.2-.1-.5-.4-1-2.6-1h-10.5c-1.1 0-1.6.3-2.1 1.2-1.1 2.1-2.3 4.2-3.4 6.2-.4.7-.9 1-1.7 1H92.5c.2-.7.5-1.4.7-2.1h8.4c1.7 0 2.4-.4 3-1.8.3-.6.5-1.3.8-1.9.2-.5.4-1.2 0-1.7-.4-.6-1.4-.9-3-.9h-8.1c-2.6 0-3.8.7-4.7 2.9-.6 1.3-1.1 2.6-1.7 4-.6 1.4-1.5 1.6-2.8 1.6h-5.8c.1-.2.2-.4.4-.5 1.1-1.7.9-3.6-.6-5.3-1.5-1.6-3.5-2.2-5.3-2.6h-4.5c-1 1.9-2.1 3.8-3.1 5.7-1.3 2.4-2.7 2.8-5.2 2.8h-5.5c1.5-2.8 3.1-5.6 4.6-8.5h-3.2c-.7 0-1.1.2-1.5.8 0-.6-.2-.8-.8-.8h-2.2c-3.6 0-5.7 1.1-7.2 4-.6 1.1-1.3 2.3-1.9 3.4-.4.7-.9 1-1.7 1h-8.3c2.4-4.3 4.7-8.6 7.1-12.9.4-.8-.1-1.7-1-1.7H6.3c-2.2 0-3.4.6-4.4 2.4h14.3c-2.7 4.9-5.3 9.7-8 14.6h4.1c2.7-4.9 5.3-9.7 8-14.6H26c-2.7 4.9-5.3 9.7-8 14.6h4.1c2.7-4.9 5.3-9.7 8-14.6h5.7l-6.6 12c-.3.5-.6 1.3-.3 1.9.3.4.9.7 1.9.7h10.8c.5 0 .8-.2 1.1-.6 0 .4.4.6.8.6h18.6c3.7 0 5.7-1.1 7.3-4 .8-1.5 1.6-3 2.5-4.5h.3c2.9.6 4.4 1.6 4.6 3.3.1.7-.2 1.3-.6 1.8-.5.6-1.4.9-2.3.9-1.9 0-2.6.7-3.4 2.3h15.8c.5 0 .8-.2 1.1-.6 0 .4.4.6.8.6h23.3c1.6 0 2.3-.4 3-1.9.9-1.7 1.8-3.3 2.7-5 .6-1.1 1.4-1.6 2.8-1.6h4.1c-.7.5-1.5 1.1-2.1 1.7-.8.8-1.5 1.9-1.7 3.3-.1 1 .1 1.9.7 2.5.5.6 1.4.9 2.3.9h9.6c.5 0 .8-.2 1.1-.6 0 .4.4.6.8.6H155c.5 0 .8-.2 1.1-.6 0 .4.4.6.8.6h29.9c1.8 0 2.7-.6 3.1-2 0-.1.1-.3.1-.4-4.6.5-9.3.5-14.1.5zm-81.8-5c.4-1.2 1.3-1.3 2.2-1.3h4.6l-.3.9c-.4 1.1-1.2 1.2-2 1.2h-4.8c.1-.2.2-.5.3-.8zm-41.8 3.4c-.6 1.2-1.4 1.6-2.8 1.6h-2.3c.8-1.5 1.6-3 2.5-4.5.6-1.1 1.4-1.6 2.8-1.6h2.3c-.9 1.5-1.7 3-2.5 4.5zm91.3 0c-.6 1.2-1.4 1.6-2.8 1.6h-2.3c.8-1.5 1.6-3 2.5-4.5.6-1.1 1.4-1.6 2.8-1.6h2.3c-.9 1.5-1.7 3-2.5 4.5zm-51.3-22v-2.1h10.6v2.1H92.3zm5.3 4.3h3.3v-3.2h-6.6v3.2h3.3m-3.4-7.4c0-1.8-.5-3.5-1.9-4.7h10.4c-1.4 1.2-1.9 2.9-1.9 4.7h-6.6zM85.4 97v-1.5h24.4V97H85.4zm1.1 5.5c1.4-.3 3-1.1 4-2.1h-4.2c0 .7.1 1.4.2 2.1zm22.2 0c-1.4-.3-3-1.1-4-2.1h4.2c0 .7-.1 1.4-.2 2.1zM85 92.1c-1.3-7.9-3.9-16.1-6.7-21.6 3 1.7 6.3 4.3 9.8 7.9-1.5-.4-2.9-.7-4.4-.9 2 4.8 3.7 9.7 5.2 14.6H85zm25.2 0c1.3-7.9 3.9-16.1 6.7-21.6-3 1.7-6.3 4.3-9.8 7.9 1.5-.4 2.9-.7 4.4-.9-2 4.8-3.7 9.7-5.2 14.6h3.9zm-26.1 2.5v-1.5h27v1.5h-27zM93 69.7c2.1-3.6 3.9-7.6 4.5-11.9.7 4.2 2.5 8.3 4.5 11.9-.7-.3-1.5-.7-2.4-1.1-.8-.3-1.1-.1-1 .6.3 7.6 1.4 16.2 5.3 22.8h-4.7c-.7-1.8-1.3-3.5-1.8-5.2-.4 1.7-1 3.4-1.8 5.2h-4.7c4-6.6 5.1-15.2 5.3-22.8 0-.8-.3-1-1-.6-.6.4-1.4.8-2.2 1.1zm-8.9 29.6v-1.5h27v1.5h-27z" fill="#231f20"/></svg>