<svg xmlns="http://www.w3.org/2000/svg" viewBox="0 0 192 192"><path d="M169.042 109.459v-7.379c0-4.604-2.243-5.844-8.795-5.844h-12.81v13.223h8.087v-8.914h2.185c2.42 0 3.246 1.417 3.246 2.952v6.02h8.087v-.058zm-23.14-8.796v-.53c0-2.185-1.239-3.838-6.906-3.838h-8.323c-5.254 0-7.438 1.771-7.438 5.667v2.302c0 3.306 2.184 5.195 6.848 5.195h14.816v-3.837h-11.983c-1.18 0-1.594-.354-1.594-1.24v-.118h9.268c3.306-.059 5.313-1.121 5.313-3.6zm-7.673.295c0 .59-.236.945-1.18.945h-5.727v-.531c0-.768.295-1.24 1.24-1.24h4.427c.708 0 1.24.236 1.24.826zm-20.897-.708h5.077v-4.014h-10.39c-1.652 0-2.715.886-2.715 2.361v10.862h8.087v-9.209h-.059zm-9.858 4.073v-2.892c0-3.306-2.184-5.195-6.847-5.195H86.165v3.837h11.628c1.181 0 1.594.354 1.594 1.299v.118H90.12c-3.896 0-5.254 1.653-5.254 3.778v.413a3.024 3.024 0 0 0 .885 2.302c1.122 1.062 3.306 1.417 6.258 1.417h8.028c5.253.059 7.437-1.122 7.437-5.077zm-8.087 0c0 .768-.295 1.24-1.24 1.24H93.78c-.767 0-1.24-.236-1.24-.827s.296-.944 1.24-.944h5.608zm-15.702 5.136v-4.014h-6.257V94.17h-8.087v15.348h14.344zm-29.16 0H67.57v-3.955H56.886c-1.004 0-2.066-.59-2.066-2.539v-.295c0-1.712.885-2.42 2.007-2.42H67.57v-4.014H54.23c-5.431 0-7.615 2.361-7.615 6.021v1.24c0 4.25 2.361 5.962 7.91 5.962zm-17.65 0h8.087V94.11H40.24a6.979 6.979 0 0 0-4.664 1.948 2582.56 2582.56 0 0 1-6.847 5.962v-7.85h-4.782a7.842 7.842 0 0 0-5.548 2.124c-1.063.768-16.942 13.164-16.942 13.164h9.622l9.504-7.851v7.85h7.733l8.559-7.732zm147.279-26.977c-4.132 0-10.035 1.24-16.41 3.542a85.608 85.608 0 0 0-16.234 7.969 46.639 46.639 0 0 1 15.289-2.892c7.26 0 12.514 2.774 4.84 12.573 22.609-14.758 21.96-21.192 12.515-21.192"/></svg>