<svg version="1.1" id="Livello_1" xmlns="http://www.w3.org/2000/svg" x="0" y="0" viewBox="0 0 192 192" xml:space="preserve"><style>.st0{fill:#343434}</style><g id="Layer_1_1_"><g id="Nissan_Badge_1_"><path class="st0" d="M110.7 102H91.5v4.2h19.9c3.8-.4 5.5-3.5 5.5-6.3s-1.8-5.9-5.2-6.2c-.7-.1-1.2-.1-1.5-.1h-12c-.5 0-1.1 0-1.3-.1-1-.2-1.3-1.1-1.3-1.8 0-.6.4-1.5 1.3-1.8.3-.1.6-.1 1.3-.1h17.5v-4.2H97.9c-.7 0-1.3 0-1.8.1-3 .4-5.2 2.9-5.2 6 0 2.5 1.6 5.5 5.1 6 .6.1 1.5.1 1.9.1H110.5c1.3.2 1.8 1.2 1.8 2 .1 1-.4 1.9-1.6 2.2zM76.2 102H57v4.2h19.9c3.8-.4 5.5-3.5 5.5-6.3s-1.8-5.9-5.2-6.2c-.7-.1-1.2-.1-1.5-.1h-12c-.5 0-1.1 0-1.3-.1-1-.2-1.3-1.1-1.3-1.8 0-.6.4-1.5 1.3-1.8.3-.1.6-.1 1.3-.1h17.5v-4.2H63.4c-.7 0-1.3 0-1.8.1-3 .4-5.2 2.9-5.2 6 0 2.5 1.6 5.5 5.1 6 .6.1 1.5.1 1.9.1H76c1.3.2 1.8 1.2 1.8 2 .1 1-.4 1.9-1.6 2.2zM42.9 85.6h4.6v20.7h-4.6zM32.8 106.3V85.6h-4.6v15.5L12.9 85.6H7v20.7h4.6V90.8L27 106.3zM180.4 85.6v15.5l-15.2-15.5h-5.9v20.7h4.5V90.8l15.4 15.5h5.8V85.6zM135.3 85.6l-12.9 20.7h5.6l2.3-3.7h15.1l2.3 3.7h5.5l-12.9-20.7h-5zm7.7 13.1h-10.3l5.2-8.3 5.1 8.3zM32.5 73.8c9.3-27 34.8-45.2 63.5-45.2s54.3 18.2 63.5 45.2l.1.2h20.2v-2.4l-8.4-1c-5.2-.6-6.3-2.9-7.7-5.8l-.4-.7C151.2 38.3 124.8 21.5 96 21.5c-28.8 0-55.2 16.7-67.4 42.7l-.4.7c-1.4 2.9-2.5 5.2-7.7 5.8l-8.4 1v2.4h20.2l.2-.3zM159.6 117.9l-.1.2c-9.3 27-34.8 45.1-63.5 45.1-28.7 0-54.3-18.2-63.5-45.2l-.1-.2H12.3v2.4l8.4 1c5.2.6 6.3 2.9 7.7 5.8l.4.7c12.1 25.9 38.6 42.7 67.4 42.7 28.7 0 55.2-16.7 67.4-42.6l.4-.7c1.4-2.9 2.5-5.2 7.7-5.8l8.4-1v-2.4h-20.5z"/></g></g></svg>