<svg xmlns="http://www.w3.org/2000/svg" viewBox="0 0 192 192"><path d="M106.7 36c-1.2 2.3-2.3 4.4-3.5 6.6-9 17.1-17.9 34.1-26.9 51.2-.3.6-.2 1 .1 1.5 5.7 10.9 11.5 21.8 17.2 32.7.2.5.3.8 0 1.3-1.5 2.8-3 5.7-4.5 8.5-.1.2-.2.3-.4.6-1.1-2.2-2.2-4.2-3.3-6.3-6.4-12.2-12.9-24.5-19.3-36.7-.3-.6-.3-1 0-1.5C77 73 87.9 52.3 98.8 31.6c.8-1.6 1.7-3.2 2.5-4.8.2-.4.5-.6 1-.6h8.9c.6 0 .8.2 1 .7 5.3 10.2 10.7 20.3 16 30.5 6.4 12.1 12.7 24.2 19.1 36.3.3.6.3 1 0 1.5-11.7 22.2-23.3 44.4-34.9 66.5-.4.7-.7 1-1.5 1-3-.1-6.1 0-9.2 0 .1-.3.2-.5.3-.7 11.7-22.2 23.3-44.5 35-66.7.3-.6.4-1.1 0-1.7-10-18.9-19.9-37.9-29.9-56.9-.1-.2-.2-.4-.4-.7zm-2.9 15.2c-1.5 2.8-3 5.7-4.5 8.5-.2.4-.2.8 0 1.2 5.7 10.9 11.5 21.8 17.2 32.8.3.6.3 1 0 1.5-9.4 17.9-18.8 35.8-28.2 53.8-.7 1.3-1.3 2.5-2.1 3.9-.2-.4-.4-.7-.5-.9-3.5-6.7-7.1-13.4-10.6-20.1-6.5-12.3-12.9-24.6-19.4-36.9-.2-.4-.2-.7 0-1 .8-1.5 1.5-2.9 2.3-4.4C69.1 68.7 80 47.9 90.9 27c.1-.3.2-.5.4-.9h-9.4c-.7 0-1 .2-1.3.8-4 7.7-8.1 15.4-12.1 23.1-7.7 14.6-15.3 29.2-23 43.8-.2.4-.2.7 0 1.2 3.6 6.9 7.2 13.8 10.9 20.7 8.1 15.4 16.2 30.8 24.3 46.3.3.5.5.7 1.2.7h8.7c.6 0 .9-.2 1.2-.7 11.7-22.3 23.4-44.5 35.1-66.8.3-.6.3-1 0-1.5-5.7-10.8-11.3-21.5-17-32.3-1.9-3.6-3.7-7.1-5.7-10.8-.2.3-.3.4-.4.6z"/></svg>