<?xml version="1.0" encoding="utf-8"?>
<!-- Generator: Adobe Illustrator 27.7.0, SVG Export Plug-In . SVG Version: 6.00 Build 0)  -->
<svg version="1.1" id="Layer_1" xmlns="http://www.w3.org/2000/svg" xmlns:xlink="http://www.w3.org/1999/xlink" x="0px" y="0px"
	 viewBox="0 0 192 192" style="enable-background:new 0 0 192 192;" xml:space="preserve">
<style type="text/css">
	.st0{fill:#DF0039;}
	.st1{fill:#003690;}
</style>
<path class="st0" d="M134.5,91.4c0,0-7.2,2.1-21.2,10.7c-12.6,7.7-17.5,12.9-17.5,12.9L57.2,88.3c0,0,16.3-12,29.9-2.8L105.3,98
	l2.2-1.5L57.2,61.2c0,0,7.2-2.1,21.2-10.7C91,42.8,95.9,37.6,95.9,37.6l38.7,26.8c0,0-16.3,12-29.9,2.8L86.4,54.7l-2.2,1.5
	L134.5,91.4"/>
<path class="st1" d="M104.6,127.9H75.1v6.5h14.2l-14.7,13.8v5.5h29.9v-6.6H89.7l14.9-13.7L104.6,127.9 M57.8,154.4
	c11.8,0,14.8-3,14.8-9.6v-16.8h-9.3v15.8c0,2.7-2.3,4.2-5.5,4.2c-3.3,0-5.4-1.6-5.4-4.3v-15.8H43v16.8
	C43,151.4,46.1,154.4,57.8,154.4 M121.7,154.4c11.8,0,14.8-3,14.8-9.6v-16.8h-9.3v15.8c0,2.7-2.3,4.2-5.5,4.2
	c-3.3,0-5.4-1.6-5.4-4.3v-15.8h-9.3v16.8C106.9,151.4,109.9,154.4,121.7,154.4 M183,127.9h-9.7v25.8h9.7V127.9 M171.8,127.9H159
	l-10.3,8.9v-8.9h-9.7v25.8h9.7v-9.1l9.6,9.1h13.1l-14.2-13.2L171.8,127.9 M20,135c0-2,3-2.1,3.9-2.1c2,0.1,3.8,1.2,4.8,2.9h11
	c0-4.9-4.6-8.7-15.7-8.7c-12.4,0-14.5,5.4-14.5,8.6c0,5.8,4.5,7.4,14.1,8.5c0.8,0.1,5.9-0.1,5.9,2.3c0,1.8-2.8,1.9-3.9,1.9
	c-1,0-3-0.2-4.6-3H9c0,5.7,3.8,8.9,16.7,8.9c11.8,0,15-4.8,15-8.5c0-3.6-2.4-7.2-12.5-8.5C23.9,136.7,20,136.5,20,135"/>
</svg>
