<svg xmlns="http://www.w3.org/2000/svg" viewBox="0 0 192 192"><path d="M96 38.4C46.9 38.4 7 64.2 7 96s39.9 57.6 89 57.6 89-25.8 89-57.6-39.9-57.6-89-57.6zm0 90.5c-7.3 0-13.3-14.4-13.7-32.5 4.4.4 9 .6 13.7.6s9.3-.2 13.7-.6c-.4 18.1-6.4 32.5-13.7 32.5zM83.3 82c2-12.8 6.9-21.9 12.7-21.9s10.8 9.1 12.7 21.9c-4.1.4-8.3.6-12.7.6s-8.7-.3-12.7-.6zM96 46.7C86.5 46.7 78.3 61 75.3 81c-18.1-2.8-30.7-9.3-30.7-16.7C44.6 54.2 67.6 46 96 46s51.4 8.2 51.4 18.3c0 7.5-12.6 13.9-30.7 16.7-3-20-11.2-34.3-20.7-34.3zM19.8 93.8c0-9.8 3.8-18.9 10.3-26.8-.1.5-.1 1.1-.1 1.7C30 81 48.4 91.5 74.2 95.3V98c0 22.9 6.4 42.3 15.3 48.9-39.1-2.3-69.7-25.2-69.7-53.1zm82.8 53.2c8.9-6.6 15.3-26 15.3-48.9v-2.7c25.7-3.9 44.2-14.3 44.2-26.6 0-.6 0-1.1-.1-1.7 6.5 7.9 10.3 17 10.3 26.8-.1 27.8-30.7 50.7-69.7 53.1z" fill="#282830"/></svg>