<svg xmlns="http://www.w3.org/2000/svg" viewBox="0 0 192 192"><path d="M96 167.434c-39.043 0-71.145-32.391-71.145-71.434a71.231 71.231 0 0 1 4.049-23.426l41.646 80.978c.578 1.157 1.157 2.025 2.603 2.025s2.024-.868 2.603-2.025l19.376-43.092q.434-.867.868-.867c.578 0 .578.578.868.867l19.666 43.092c.578 1.157 1.157 2.025 2.603 2.025s2.024-.868 2.603-2.025l41.645-80.978A68.696 68.696 0 0 1 167.435 96c-.29 39.043-32.392 71.434-71.435 71.434zm0-89.943c-.578 0-.578-.579-.868-.868L72.863 28.615a68.13 68.13 0 0 1 46.274 0l-22.27 48.008c-.289.29-.289.868-.867.868zm-23.426 52.057c-.578 0-.578-.578-.867-.868l-36.44-69.988a73.197 73.197 0 0 1 26.317-25.16l25.74 55.527c.578 1.157 1.157 1.446 2.024 1.446h13.304c.867 0 1.446-.29 2.024-1.446l25.45-55.528a73.197 73.197 0 0 1 26.318 25.161l-36.15 69.988q-.434.868-.868.868c-.579 0-.579-.578-.868-.868l-13.882-30.656c-.578-1.156-1.157-1.446-2.024-1.446H89.348c-.867 0-1.446.29-2.024 1.446L73.442 128.68c-.29.29-.29.868-.868.868zM96 176.978A80.978 80.978 0 1 0 15.022 96 80.845 80.845 0 0 0 96 176.978z" fill="#001e50" fill-rule="evenodd"/></svg>